<svg id="Laag_1" data-name="Laag 1" xmlns="http://www.w3.org/2000/svg" xmlns:xlink="http://www.w3.org/1999/xlink" viewBox="0 0 595.28 841.89"><defs><style>.cls-1{fill:none;}.cls-2{clip-path:url(#clip-path);}.cls-3{fill:#fff;}</style><clipPath id="clip-path"><rect class="cls-1" x="62.41" y="75.34" width="458.43" height="644.94"/></clipPath></defs><title>logo Pilates Inge</title><g class="cls-2"><path class="cls-3" d="M520.34,478.23c-2.57-26.75-20.23-43-38.92-60.2-3.63-3.34-7.29-6.71-10.89-10.19-.85-.86-1.67-1.66-2.48-2.43-10.57-10.47-20.53-22.16-27.74-37.42-8.51-18-16.28-37.51-23.79-56.37-12.91-32.41-25.1-63-38.44-78.68-1.81-2.12-3.58-4.15-5.34-6.12v0a157.33,157.33,0,0,0-17.58-19.41c-8.89-10.08-14.94-18.46-15.92-27.73-.68-6.52.62-12.09,1.77-17,1.78-7.56,3.45-14.69-3.42-21.47a73.56,73.56,0,0,0-10.13-7.84c-9.4-6.46-21.1-14.51-32.43-36C286.41,81,279,73.68,272.93,75.65c-5.32,1.74-7.16,10-5.18,23.26.83,5.61,1.43,10.6,2,15.26,1.82,15.37,3.26,27.51,11.65,47.06,3.69,8.62,10.11,19.49,17.54,32.08,6.18,10.47,13,22,19.48,34.35a33.6,33.6,0,0,0,5.09,10c6.78,13.82,12.86,28.41,16.94,43.37,13.46,49.35,18.73,75.72,26.84,125.25a94.27,94.27,0,0,0,6.39,21.56,38.5,38.5,0,0,0,4.76,10l0,.06a231.32,231.32,0,0,0,16.77,26.24c-26.73,16-64.15,42.85-86.08,59l-.19.12c-.62.45-1.23.9-1.82,1.35-7.45,5.49-12.83,9.52-15,11.13-6.54-1.55-35.67-5.93-76.33,25-26.76,20.34-42.43,30-55.16,35.12a35.79,35.79,0,0,0-8.46,2.86,105.11,105.11,0,0,1-14.05,2.76c-13.3,1.81-18.48,7.29-24.47,13.63A77.73,77.73,0,0,1,100.3,627c-5.57,3.81-11.56,7.21-16.85,10.21-12.22,6.93-21,11.94-21,18.84a6.51,6.51,0,0,0,3.32,5.6c2.48,1.56,6.27,2.31,10.9,2.31,8,0,18.51-2.23,29.1-6.28a18.69,18.69,0,0,0,2.85-1.13q3-1.23,6-2.65c3.21-1.54,7.46-3.64,12.52-6.12,18.4-9.05,48-23.62,75.89-35.7,4.91,7.71,9.61,15.75,14.17,23.56,20.59,35.33,41.89,71.85,85.07,78.55,1.36.22,2.74.42,4.11.62l.17,0c3.7.71,7.18,1.18,10.48,1.48a401.35,401.35,0,0,0,52.66,4c43.94,0,84-10.64,101.19-47.94,27.36-59.29,54-147.46,49.54-194.1m-34,131.71c-1.39,5-2.87,10.26-4.39,15.89,1.9-31.57-10.79-53-28.7-61.87-10.61-5.29-21.5-5.22-29.87-.54,4-11.31,6.59-25,7.36-40,.93-18.3-12-36-25.71-54.69-4.11-5.62-8.39-11.47-12.47-17.58,15,9.35,35.4,11.88,52.42,9.65a82,82,0,0,0,9.22-1.74c7,16.92,15.86,33.89,24.3,46.4,26.19,38.82,20.06,60.76,7.84,104.46M317.67,711.15c-3.47-.47-6.9-1-10.31-1.47-37.84-7.37-55.3-36.36-62.35-53-6.8-16.07-7-27.59-6-29.4,18.63,20.36,33.15,31,49,32.2h0c16.7,1.21,30.83,3.22,43.3,5,5.47.78,10.58,1.5,15.4,2.09a11.1,11.1,0,0,0-1.41,7.24c.7,6.4,5.66,15.27,15,23.05-5.31,6.51-17.69,16.45-42.73,14.29m-78.81-84.08c0,.07.12.13.17.2a3.51,3.51,0,0,1-1,.59Zm111.67,46.17c-.52-4.74,2.2-5.2,3.09-5.35a14.61,14.61,0,0,1,2.66-.24,9.5,9.5,0,0,1,8.44,4.38c3.29,5.1,2.68,13.24-1.34,20.45-8.14-6.89-12.33-14.41-12.85-19.24m-18.41-13.89c-12.14-1.73-25.86-3.67-42-4.91-4.2-12-2.64-22.29,4.67-30.68,15.77-18.11,51.42-21.72,60.37-19.62,16,3.76,19.08,6.52,17.49,15.55-1.51,8.61,2.56,12.34,5.11,13.8,5.62,3.2,14,1.48,18.51-2.14,2.48-1.1,7.76-3,9-.26,2.29,5-5.46,21.47-19.48,27.84-13.49,6.12-30.35,3.74-53.67.42m61.22-44.24c.63,4.78,1.41,10.72-.1,12-3,2.56-9.27,3.92-12.91,1.86-2.44-1.4-3.3-4.22-2.57-8.41,2.57-14.66-7.25-18.15-21.41-21.48-11.92-2.8-49,2.32-65.47,21.25-8.14,9.35-10.3,20.58-6.44,33.44-15.46-2.87-31-16.28-59.51-50.87,13-5.07,24.64-9,33.34-10.73l3-.6a127.27,127.27,0,0,0,16.21-3.53c10.23-2.32,22.33-5.24,35-8.58a33.73,33.73,0,0,0,10.61-2.87c29.75-8.21,60.74-18.46,77.26-28.69l24.39-15.09c-3.35,30.86-14.44,49.92-24.77,55.43-9.51,5.07-7.92,17.15-6.64,26.85m-288,37.12c2.61-5,11.62-15.51,21.54-25.62,1.75.61,2.69,1.45,3,2.36,1.39,4.6-8.71,15.78-23.34,22.77l0,0-1.14.47m29.47-24.76a8,8,0,0,0-4-4.77c8.82-8.67,17.79-16.4,23.19-19.11a85,85,0,0,0,8.27-2.8c4.25-.81,9.19-1,16.52-1.22,10.23-.33,25.44-.83,49.9-3.62-31.69,11.9-72.79,31.85-98.34,44.39,3.71-4.52,5.63-9.07,4.48-12.87m176.75-99.7.64-.46c3.76-2.67,7.19-4.06,9.89-4.06a5.79,5.79,0,0,1,3.23.88c3.05,2,4.09,7.5,2.66,14-2,9.26-9.9,23.33-27.21,34.19a15.39,15.39,0,0,1-8.29-9c-2.9-8.38.63-22.09,19.08-35.57m114-4.59c-.05,1.08-.12,2.14-.19,3.2l-27.69,17.14c-11.77,7.29-32.41,15-55.25,22,19.66-13.65,42-35.24,55.18-55.26,6.88-10.42,10.7-19.48,11.46-27.08,9.87,14.08,17.16,26.93,16.49,40m22.05-123.55a2.37,2.37,0,0,1,1.57-.48c2.69,0,7.82,2.76,15.77,10.42l1.83,1.8.2.2c9.25,9.33,12.81,18.16,10.29,25.52-2.27,6.67-9.55,12.25-19.93,15.68-10.1-25.89-14.8-49-9.73-53.14M411.7,313.54c7.54,18.93,15.34,38.53,23.92,56.67a119.25,119.25,0,0,0,15.2,23.93,7.67,7.67,0,0,0-6.55,1.47c-8.08,6.63-2.58,32,7.92,58.61a79.32,79.32,0,0,1-7.93,1.46c-21.68,2.86-49-2.39-61.39-20.53q-2.34-4.45-4.33-9.1c-5-16.39.17-38.71,6-63.91,7.12-30.53,14.89-63.93,7.24-95.93,6.57,14,13.12,30.38,19.87,47.33M324.51,137.62a68.94,68.94,0,0,1,9.43,7.27c4.58,4.51,3.84,8.79,2,16.59-1.24,5.31-2.65,11.33-1.87,18.72.63,6,2.95,11.5,6.54,17.07a23.26,23.26,0,0,0-7.9-2.16c-6.19-18.07-15.09-41-26.26-68.66l-2.68-6.65c7.4,8.66,14.54,13.57,20.73,17.82m3.4,97.27c-1.53-3.11-3.1-6.19-4.68-9.21a35,35,0,0,1-1.53-11.37c.28-7.18,3-12.27,7.2-13.64l.19-.06c6.71,20,10.86,36.54,7.63,39.75-.34.31-1.36.06-2.22-.3a16.49,16.49,0,0,1-6.59-5.17m-41.77-75.71c-8.08-18.86-9.48-30.67-11.26-45.62-.56-4.71-1.16-9.75-2-15.42-1.83-12.25.33-17.12,1.67-17.56s6.87,2.1,15.79,19c2.13,6.06,6.18,16.12,11.31,28.82,6.53,16.19,17.59,43.6,25.77,67.31l-.12,0c-6.23,2-10.2,8.6-10.74,17.68-4.48-8-9-15.63-13.17-22.75-7.35-12.43-13.69-23.17-17.25-31.49m59.29,120.48a236,236,0,0,0-12.78-34.76c4,1.61,6.42.43,7.73-.87,4.57-4.54,2.19-19.05-5.8-43.38,3.85.88,9.37,3.61,16.84,10.36,2.48,2.8,5.14,5.71,8,8.8s6.05,6.6,9.31,10.28c31.84,40.75,20.68,88.63,10.83,130.87-3.42,14.65-6.61,28.36-7.77,40.7-7.8-47.31-13.16-73.69-26.34-122m55.38,192.16,2.31,3.16c2.63,7.44-.78,18.65-9.89,32.45-18,27.33-52.14,55.69-72,64.28-3.2.89-6.41,1.76-9.6,2.61a29.45,29.45,0,0,1-4.35-.16c14.54-10.18,23.12-23,25.72-34.88,1.95-8.92.13-16.2-4.88-19.48a10.42,10.42,0,0,0-3.64-1.49c22-15.93,51.66-36.79,73.75-49.94l2.53,3.45M219,564.82c41-31.15,69.8-24.64,72.7-23.87-5.68,9.22-6.27,17.81-4.1,24.08a20.13,20.13,0,0,0,8,10.31A98.76,98.76,0,0,1,276.36,583c-5.72,1.3-11.12,2.47-16.08,3.48-44.19,6.68-67.65,7.44-81.68,7.9l-3.16.1c10.95-6,24.52-15.21,43.54-29.67m-101.51,53.8c5.76-6.09,9.92-10.49,21.4-12.06.91-.12,1.8-.25,2.69-.39-4.88,4-10.6,9.22-16.24,14.76a44,44,0,0,0-9.7-.37l1.85-1.94m-49,38.59c-.88-.56-.88-1-.88-1.21,0-3.88,9.36-9.19,18.41-14.32,5.38-3.06,11.47-6.51,17.22-10.44a72.46,72.46,0,0,0,6.32-4.86,66,66,0,0,1,11.07-.72c-11.08,11.4-20.65,23.23-21.06,28.69-15.08,5-27.28,5.25-31.08,2.86M207.78,610c4.1-1.75,8.14-3.43,12.09-5,5.58,6.79,10.78,12.94,15.68,18.46-1.26,1-3,3.86-1.75,13,1.17,8.69,5.79,24.43,15.86,39.69-10.31-12.65-19.08-27.68-28.06-43.08-4.44-7.62-9-15.45-13.82-23M343.32,714A43.59,43.59,0,0,0,364.53,700c8.66,6.07,20.31,11.07,35,13.07-17.58,2.6-36.85,2.44-56.19.87m75.84-5.24c-23.31,1.12-40.36-5.11-51.63-13,5.36-9.1,6-19.5,1.54-26.46a13.64,13.64,0,0,0-1-1.35,51.27,51.27,0,0,0,19.89-4.22c15.83-7.2,26-25.95,22.06-34.7-.88-1.94-3.55-5.63-10.77-4.05a54.38,54.38,0,0,0-.75-10.47c-1.12-8.54-2.4-18.21,3.95-21.59,5.92-3.16,11.19-9.12,15.56-17.18,6.46-10.62,19.88-13.56,32.91-7.06,17.86,8.9,40.75,41,13.55,104.78-9.61,18.31-25.7,29.28-45.29,35.33m79.71-126.53c5.92-27.46,4.69-48.77-16.11-79.6-9-13.39-17.18-29.5-23.53-45,11.86-4,20.08-10.6,22.9-18.85a21,21,0,0,0,.1-12.92c16.83,15.62,30.75,30.05,32.95,52.89,2.46,25.61-4.74,64.17-16.31,103.45"/></g></svg>